<svg xmlns="http://www.w3.org/2000/svg" xmlns:xlink="http://www.w3.org/1999/xlink" width="2000" zoomAndPan="magnify" viewBox="0 0 1500 1499.999933" height="2000" preserveAspectRatio="xMidYMid meet" version="1.0"><rect x="-150" width="1800" fill="#ffffff" y="-149.999993" height="1799.99992" fill-opacity="1"/><rect x="-150" width="1800" fill="#ffffff" y="-149.999993" height="1799.99992" fill-opacity="1"/><rect x="-150" width="1800" fill="#ffffff" y="-149.999993" height="1799.99992" fill-opacity="1"/><rect x="-150" width="1800" fill="#ffffff" y="-149.999993" height="1799.99992" fill-opacity="1"/><path fill="#caecff" d="M 41.695312 1360.675781 L 41.695312 680.132812 C 41.695312 672.332031 48.171875 666.003906 56.171875 666.003906 L 154.9375 666.003906 C 162.933594 666.003906 169.414062 659.6875 169.414062 651.886719 L 169.414062 382.078125 C 169.414062 374.273438 175.878906 367.945312 183.875 367.945312 L 325.4375 367.945312 C 333.4375 367.945312 339.902344 374.273438 339.902344 382.078125 L 339.902344 503.554688 C 339.902344 511.355469 346.382812 517.671875 354.363281 517.671875 L 496.945312 517.671875 C 504.941406 517.671875 511.410156 511.355469 511.410156 503.554688 L 511.410156 165.089844 C 511.410156 154.734375 522.4375 147.894531 532.035156 152.292969 L 623.730469 194.425781 C 628.804688 196.757812 632.042969 201.734375 632.042969 207.207031 L 632.042969 281.488281 C 632.042969 289.292969 638.507812 295.609375 646.503906 295.609375 L 701.460938 295.609375 C 706.796875 295.609375 711.703125 298.488281 714.210938 303.109375 L 758.109375 383.582031 C 759.226562 385.621094 759.804688 387.894531 759.804688 390.210938 L 759.804688 573.589844 C 759.804688 581.394531 766.285156 587.722656 774.265625 587.722656 L 798.257812 587.722656 C 806.253906 587.722656 812.734375 581.394531 812.734375 573.589844 L 812.734375 103.144531 C 812.734375 95.339844 819.199219 89.011719 827.195312 89.011719 L 1053.753906 89.011719 C 1061.75 89.011719 1068.230469 95.339844 1068.230469 103.144531 L 1068.230469 639.519531 C 1068.230469 647.320312 1074.707031 653.648438 1082.691406 653.648438 L 1102.597656 653.648438 C 1110.582031 653.648438 1117.0625 647.320312 1117.0625 639.519531 L 1117.0625 436.382812 C 1117.0625 432.042969 1119.117188 427.933594 1122.632812 425.257812 L 1277.703125 306.96875 C 1287.203125 299.730469 1301.074219 306.332031 1301.074219 318.109375 L 1301.074219 675.734375 C 1301.074219 683.539062 1307.554688 689.867188 1315.535156 689.867188 L 1344.171875 689.867188 C 1352.152344 689.867188 1358.632812 683.539062 1358.632812 675.734375 L 1358.632812 565.152344 C 1358.632812 557.347656 1365.113281 551.019531 1373.09375 551.019531 L 1447.792969 551.019531 C 1455.789062 551.019531 1462.253906 557.347656 1462.253906 565.152344 L 1462.253906 1360.675781 C 1462.253906 1368.480469 1455.789062 1374.808594 1447.792969 1374.808594 L 56.171875 1374.808594 C 48.171875 1374.808594 41.695312 1368.480469 41.695312 1360.675781 " fill-opacity="1" fill-rule="nonzero"/><path fill="#84d170" d="M 26.96875 1369.691406 C 26.96875 1369.691406 48.378906 1288.1875 184.027344 1299.203125 C 319.664062 1310.21875 585.800781 1329.972656 585.800781 1329.972656 C 585.800781 1329.972656 654.089844 1235.769531 745.660156 1242.371094 C 837.230469 1248.976562 884.492188 1329.972656 884.492188 1329.972656 C 884.492188 1329.972656 926.789062 1301.984375 965.890625 1305.859375 C 1004.988281 1309.734375 1029.679688 1340.273438 1029.679688 1340.273438 C 1029.679688 1340.273438 1142.414062 1295.949219 1269.128906 1310.21875 C 1395.84375 1324.472656 1435.660156 1369.691406 1435.660156 1369.691406 L 26.96875 1369.691406 " fill-opacity="1" fill-rule="nonzero"/><path fill="#51cbbf" d="M 120.582031 385.082031 L 120.582031 1334.921875 L 665.0625 1334.921875 L 665.0625 385.082031 L 120.582031 385.082031 " fill-opacity="1" fill-rule="nonzero"/><path fill="#3fc3b9" d="M 120.582031 1254.972656 L 120.582031 1334.921875 L 665.0625 1334.921875 L 665.0625 532.382812 L 120.582031 1254.972656 " fill-opacity="1" fill-rule="nonzero"/><path fill="#00aea2" d="M 625.578125 1240.222656 L 613.597656 1228.847656 C 609.585938 1225.042969 610.714844 1218.285156 615.800781 1216.121094 C 621.566406 1213.695312 627.671875 1212.097656 633.960938 1211.433594 C 640.8125 1210.703125 644.367188 1215.652344 641.816406 1222.0625 L 635.722656 1237.410156 C 632.265625 1237.851562 628.859375 1238.789062 625.578125 1240.222656 Z M 608.027344 1256.28125 C 602.554688 1251.746094 596.609375 1246.824219 592.570312 1243.476562 C 589.773438 1241.160156 589.277344 1236.996094 591.578125 1234.183594 L 591.855469 1233.839844 C 594.308594 1230.886719 598.816406 1230.75 601.601562 1233.398438 L 615.625 1246.714844 C 612.507812 1249.527344 609.96875 1252.765625 608.027344 1256.28125 Z M 596.128906 1310.628906 C 593.066406 1312.574219 588.933594 1311.746094 586.972656 1308.6875 L 586.710938 1308.257812 C 584.699219 1305.046875 585.953125 1300.773438 589.289062 1298.953125 L 606.6875 1289.523438 C 608.039062 1292.527344 609.777344 1295.4375 612.011719 1298.125 C 612.464844 1298.664062 612.960938 1299.160156 613.445312 1299.671875 Z M 577.269531 1280.050781 C 577.226562 1279.609375 577.199219 1279.183594 577.15625 1278.742188 C 576.800781 1272.921875 577.253906 1267.160156 578.453125 1261.5625 C 579.679688 1255.871094 586.492188 1253.457031 590.984375 1257.179688 L 603.933594 1267.917969 C 603.351562 1271.253906 603.257812 1274.660156 603.601562 1278.050781 L 588.671875 1286.144531 C 583.789062 1288.792969 577.738281 1285.578125 577.269531 1280.050781 Z M 537.039062 1046.710938 L 472.046875 1046.710938 C 470.0625 1046.710938 468.203125 1045.746094 467.058594 1044.105469 L 446.347656 1014.421875 L 540.402344 1014.421875 Z M 650.339844 1334.921875 C 649.109375 1333.929688 648.1875 1332.539062 647.882812 1330.882812 L 644.246094 1311.238281 C 648.269531 1310.851562 652.242188 1309.804688 656.003906 1308.078125 L 661.09375 1327.972656 C 661.765625 1330.621094 660.773438 1333.335938 658.761719 1334.921875 L 665.0625 1334.921875 L 665.0625 1230.351562 L 659.410156 1242.207031 C 655.839844 1240.125 651.980469 1238.675781 647.980469 1237.878906 L 655.382812 1219.222656 C 656.722656 1215.859375 660.582031 1214.207031 663.945312 1215.558594 L 664.34375 1215.707031 L 665.0625 1216.09375 L 665.0625 929.191406 L 593.386719 931.644531 C 576.484375 932.433594 561.398438 942.511719 554.1875 957.8125 L 544.054688 979.390625 L 542.882812 990.585938 L 537.109375 990.585938 L 537.109375 823.804688 C 537.109375 807.703125 524.039062 794.648438 507.921875 794.648438 L 379.414062 794.648438 C 344.4375 794.648438 315.347656 819.792969 309.183594 852.980469 C 308.453125 856.964844 308.039062 861.085938 308.011719 865.277344 L 307.984375 866.089844 L 307.984375 990.585938 L 305.089844 990.585938 C 301.917969 990.585938 299.328125 993.164062 299.328125 996.347656 L 299.328125 1008.660156 C 299.328125 1011.84375 301.917969 1014.421875 305.089844 1014.421875 L 422.621094 1014.421875 L 457.449219 1065.5 C 458.578125 1067.171875 460.46875 1068.164062 462.480469 1068.164062 L 535.039062 1068.164062 C 535.289062 1073.703125 537.878906 1078.929688 542.320312 1082.433594 L 564.488281 1099.914062 L 501.25 1174.335938 C 499.703125 1176.15625 499.59375 1178.773438 500.972656 1180.71875 C 502.585938 1182.953125 505.671875 1183.558594 508.003906 1182.070312 L 596.652344 1125.296875 L 639.363281 1158.988281 C 576.042969 1159.636719 524.921875 1211.144531 524.921875 1274.605469 C 524.921875 1296.707031 531.125 1317.359375 541.878906 1334.921875 L 620.628906 1334.921875 C 616.4375 1333.53125 612.425781 1331.722656 608.660156 1329.546875 C 603.738281 1326.664062 603.78125 1319.46875 608.605469 1316.421875 L 623.261719 1307.140625 C 626.140625 1308.644531 629.203125 1309.761719 632.347656 1310.480469 L 635.488281 1327.492188 C 636.097656 1330.71875 635.351562 1333.296875 633.671875 1334.921875 L 650.339844 1334.921875 " fill-opacity="1" fill-rule="nonzero"/><path fill="#f4b185" d="M 828.144531 632.460938 L 865.261719 753.453125 C 868.363281 763.53125 876.921875 770.960938 887.347656 772.589844 L 1037.042969 795.941406 C 1041.8125 796.6875 1046.652344 796.742188 1051.464844 796.273438 C 1066.410156 794.828125 1080.359375 797.722656 1093.101562 805.992188 C 1094.65625 807 1096.671875 806.945312 1098.078125 805.746094 L 1103.828125 800.933594 C 1105.480469 799.527344 1105.785156 797.101562 1104.5 795.335938 C 1099.609375 788.621094 1086.621094 773.386719 1067.566406 769.925781 C 1042.929688 765.460938 916.546875 731.808594 916.546875 731.808594 L 881.816406 626.835938 L 828.144531 632.460938 " fill-opacity="1" fill-rule="nonzero"/><path fill="#40a74d" d="M 830.78125 672.550781 L 848.9375 736.289062 C 849.804688 739.308594 853.113281 740.90625 856.023438 739.691406 L 915.761719 714.683594 C 917.898438 713.789062 918.890625 711.320312 917.96875 709.195312 L 890.835938 646.273438 C 886.203125 635.824219 876.453125 628.558594 865.109375 627.097656 C 852.453125 625.46875 840.003906 631.371094 833.234375 642.191406 L 833.109375 642.386719 C 827.441406 651.457031 826.574219 662.722656 830.78125 672.550781 " fill-opacity="1" fill-rule="nonzero"/><path fill="#3e4860" d="M 427.625 1025.121094 L 393.296875 975.902344 C 390.457031 971.820312 385 970.566406 380.65625 972.980469 C 375.679688 975.75 374.160156 982.1875 377.359375 986.890625 L 418.015625 1046.515625 C 419.148438 1048.1875 421.035156 1049.179688 423.050781 1049.179688 L 539.5625 1049.179688 L 539.5625 1027.726562 L 432.617188 1027.726562 C 430.632812 1027.726562 428.769531 1026.746094 427.625 1025.121094 " fill-opacity="1" fill-rule="nonzero"/><path fill="#3e4860" d="M 1155.539062 839.191406 L 1140.925781 818.566406 C 1138.804688 815.589844 1137.671875 812.019531 1137.671875 808.351562 L 1137.671875 788.582031 C 1137.671875 778.832031 1129.757812 770.921875 1120.011719 770.921875 L 1078.71875 770.921875 C 1068.960938 770.921875 1061.058594 778.832031 1061.058594 788.582031 L 1061.058594 802.464844 C 1061.058594 812.226562 1068.960938 820.140625 1078.71875 820.140625 L 1090.21875 820.140625 C 1096.023438 820.140625 1101.46875 822.980469 1104.765625 827.761719 L 1126.601562 859.445312 C 1132.53125 868.035156 1144.578125 869.648438 1152.546875 862.890625 C 1159.550781 856.976562 1160.847656 846.679688 1155.539062 839.191406 " fill-opacity="1" fill-rule="nonzero"/><path fill="#3e4860" d="M 535.175781 995.4375 L 265.660156 995.4375 C 262.488281 995.4375 259.898438 992.84375 259.898438 989.660156 L 259.898438 977.363281 C 259.898438 974.179688 262.488281 971.601562 265.660156 971.601562 L 535.175781 971.601562 L 535.175781 995.4375 " fill-opacity="1" fill-rule="nonzero"/><path fill="#3e4860" d="M 539.5625 1063.859375 L 461.816406 1155.351562 C 460.273438 1157.15625 460.164062 1159.789062 461.554688 1161.71875 C 463.15625 1163.96875 466.242188 1164.558594 468.574219 1163.070312 L 587.484375 1086.925781 L 539.5625 1063.859375 " fill-opacity="1" fill-rule="nonzero"/><path fill="#3e4860" d="M 601.132812 1323.988281 C 563.386719 1323.988281 532.777344 1293.371094 532.777344 1255.621094 C 532.777344 1217.859375 563.386719 1187.253906 601.132812 1187.253906 C 638.894531 1187.253906 669.5 1217.859375 669.5 1255.621094 C 669.5 1293.371094 638.894531 1323.988281 601.132812 1323.988281 Z M 601.132812 1139.964844 C 537.257812 1139.964844 485.488281 1191.746094 485.488281 1255.621094 C 485.488281 1319.496094 537.257812 1371.265625 601.132812 1371.265625 C 665.007812 1371.265625 716.789062 1319.496094 716.789062 1255.621094 C 716.789062 1191.746094 665.007812 1139.964844 601.132812 1139.964844 " fill-opacity="1" fill-rule="nonzero"/><path fill="#77727e" d="M 539.023438 1242.578125 C 540.25 1236.871094 547.0625 1234.472656 551.554688 1238.195312 L 571.753906 1254.945312 L 549.238281 1267.148438 C 544.359375 1269.808594 538.308594 1266.59375 537.839844 1261.054688 C 537.796875 1260.625 537.753906 1260.183594 537.726562 1259.757812 C 537.371094 1253.9375 537.824219 1248.164062 539.023438 1242.578125 Z M 547.558594 1289.703125 L 547.28125 1289.273438 C 545.253906 1286.0625 546.523438 1281.773438 549.859375 1279.96875 L 577.324219 1265.066406 C 579.679688 1263.796875 582.589844 1264.320312 584.355469 1266.332031 C 586.671875 1268.96875 586.078125 1273.046875 580.785156 1276.398438 L 556.699219 1291.632812 C 553.625 1293.589844 549.515625 1292.761719 547.558594 1289.703125 Z M 569.230469 1310.546875 C 564.308594 1307.667969 564.351562 1300.484375 569.175781 1297.4375 L 591.414062 1283.359375 L 596.058594 1308.507812 C 597.273438 1315.054688 593 1319 586.503906 1317.46875 C 580.355469 1316.007812 574.550781 1313.648438 569.230469 1310.546875 Z M 592.695312 1227.46875 L 574.167969 1209.863281 C 570.15625 1206.042969 571.285156 1199.300781 576.371094 1197.136719 C 582.136719 1194.699219 588.242188 1193.113281 594.53125 1192.449219 C 601.382812 1191.71875 604.9375 1196.667969 602.386719 1203.078125 Z M 608.414062 1237.078125 C 604.992188 1236.292969 603.089844 1232.652344 604.375 1229.386719 L 615.953125 1200.238281 C 617.292969 1196.875 621.152344 1195.207031 624.515625 1196.558594 L 624.914062 1196.722656 C 628.472656 1198.144531 630.042969 1202.15625 628.390625 1205.617188 L 614.851562 1233.960938 C 613.691406 1236.375 611.019531 1237.671875 608.414062 1237.078125 Z M 608.453125 1311.886719 L 602.773438 1281.222656 C 602.292969 1278.578125 603.710938 1275.941406 606.179688 1274.910156 L 606.191406 1274.910156 C 609.40625 1273.558594 613.074219 1275.363281 614.617188 1281.417969 L 621.660156 1308.988281 C 622.570312 1312.519531 620.488281 1316.199219 616.960938 1317.097656 L 616.476562 1317.21875 C 612.796875 1318.128906 609.144531 1315.609375 608.453125 1311.886719 Z M 624.515625 1273.433594 L 649.910156 1276.785156 C 655.328125 1277.5 658.445312 1283.554688 655.632812 1288.253906 C 652.984375 1292.679688 649.785156 1296.816406 646.0625 1300.539062 C 645.332031 1301.269531 644.574219 1301.984375 643.816406 1302.675781 C 639.433594 1306.605469 632.484375 1304.621094 631.023438 1298.925781 Z M 664.46875 1259.578125 L 664.441406 1260.0625 C 664.167969 1263.839844 660.652344 1266.539062 656.886719 1266.042969 L 625.964844 1261.964844 C 623.316406 1261.617188 621.261719 1259.480469 621.015625 1256.820312 C 620.695312 1253.320312 623.5625 1250.367188 627.066406 1250.589844 L 658.195312 1252.589844 C 661.835938 1252.824219 664.703125 1255.925781 664.46875 1259.578125 Z M 649.234375 1214.136719 C 653.234375 1218.78125 656.570312 1224.007812 659.105469 1229.660156 C 661.492188 1234.984375 657.371094 1240.9375 651.550781 1240.578125 L 625.316406 1238.882812 L 636.332031 1215.820312 C 638.742188 1210.746094 645.566406 1209.890625 649.234375 1214.136719 Z M 562.171875 1214.414062 L 584.78125 1235.890625 C 586.726562 1237.726562 587.125 1240.664062 585.761719 1242.964844 L 585.746094 1242.964844 C 583.953125 1245.96875 579.902344 1246.671875 577.214844 1244.441406 C 570.691406 1239.035156 559.523438 1229.785156 553.140625 1224.492188 C 550.355469 1222.175781 549.859375 1218.011719 552.148438 1215.199219 L 552.425781 1214.855469 C 554.878906 1211.902344 559.386719 1211.765625 562.171875 1214.414062 Z M 528.792969 1275.957031 C 537.285156 1306.714844 565.191406 1328.9375 597.066406 1330.609375 C 598.390625 1330.675781 599.714844 1330.71875 601.035156 1330.71875 C 620.945312 1330.71875 640.121094 1322.832031 654.238281 1308.714844 C 669.488281 1293.480469 677.441406 1272.34375 676.078125 1250.753906 C 673.707031 1213.171875 643.582031 1183.046875 606.015625 1180.675781 C 584.421875 1179.3125 563.289062 1187.265625 548.039062 1202.515625 C 529.152344 1221.402344 521.445312 1249.308594 528.792969 1275.957031 " fill-opacity="1" fill-rule="nonzero"/><path fill="#ecf3f3" d="M 581.171875 1223.855469 C 562.214844 1235.976562 558.1875 1261.839844 572.582031 1279.140625 C 584.464844 1293.398438 605.460938 1296.652344 621.109375 1286.667969 C 640.066406 1274.5625 644.09375 1248.6875 629.6875 1231.398438 C 617.816406 1217.140625 596.816406 1213.875 581.171875 1223.855469 " fill-opacity="1" fill-rule="nonzero"/><path fill="#3e4860" d="M 616.214844 1255.261719 C 616.214844 1246.9375 609.460938 1240.195312 601.132812 1240.195312 C 592.820312 1240.195312 586.0625 1246.9375 586.0625 1255.261719 C 586.0625 1263.589844 592.820312 1270.34375 601.132812 1270.34375 C 609.460938 1270.34375 616.214844 1263.589844 616.214844 1255.261719 " fill-opacity="1" fill-rule="nonzero"/><path fill="#3e4860" d="M 1280.585938 1323.988281 C 1242.824219 1323.988281 1212.21875 1293.371094 1212.21875 1255.621094 C 1212.21875 1217.859375 1242.824219 1187.253906 1280.585938 1187.253906 C 1318.335938 1187.253906 1348.941406 1217.859375 1348.941406 1255.621094 C 1348.941406 1293.371094 1318.335938 1323.988281 1280.585938 1323.988281 Z M 1280.585938 1139.964844 C 1216.699219 1139.964844 1164.929688 1191.746094 1164.929688 1255.621094 C 1164.929688 1319.496094 1216.699219 1371.265625 1280.585938 1371.265625 C 1344.445312 1371.265625 1396.230469 1319.496094 1396.230469 1255.621094 C 1396.230469 1191.746094 1344.445312 1139.964844 1280.585938 1139.964844 " fill-opacity="1" fill-rule="nonzero"/><path fill="#77727e" d="M 1218.464844 1242.578125 C 1219.691406 1236.871094 1226.5 1234.472656 1230.996094 1238.195312 L 1251.191406 1254.945312 L 1228.679688 1267.148438 C 1223.796875 1269.808594 1217.746094 1266.59375 1217.277344 1261.054688 C 1217.234375 1260.625 1217.207031 1260.183594 1217.179688 1259.757812 C 1216.808594 1253.9375 1217.265625 1248.164062 1218.464844 1242.578125 Z M 1226.996094 1289.703125 L 1226.722656 1289.273438 C 1224.707031 1286.0625 1225.964844 1281.773438 1229.300781 1279.96875 L 1256.777344 1265.066406 C 1259.121094 1263.796875 1262.03125 1264.320312 1263.792969 1266.332031 C 1266.109375 1268.96875 1265.53125 1273.046875 1260.222656 1276.398438 L 1236.136719 1291.632812 C 1233.078125 1293.589844 1228.953125 1292.761719 1226.996094 1289.703125 Z M 1248.683594 1310.546875 C 1243.75 1307.667969 1243.789062 1300.484375 1248.613281 1297.4375 L 1270.851562 1283.359375 L 1275.5 1308.507812 C 1276.710938 1315.054688 1272.4375 1319 1265.957031 1317.46875 C 1259.796875 1316.007812 1253.992188 1313.648438 1248.683594 1310.546875 Z M 1272.136719 1227.46875 L 1253.605469 1209.863281 C 1249.59375 1206.042969 1250.722656 1199.300781 1255.8125 1197.136719 C 1261.574219 1194.699219 1267.683594 1193.113281 1273.96875 1192.449219 C 1280.820312 1191.71875 1284.378906 1196.667969 1281.828125 1203.078125 Z M 1287.851562 1237.078125 C 1284.433594 1236.292969 1282.53125 1232.652344 1283.8125 1229.386719 L 1295.394531 1200.238281 C 1296.746094 1196.875 1300.589844 1195.207031 1303.953125 1196.558594 L 1304.355469 1196.722656 C 1307.925781 1198.144531 1309.484375 1202.15625 1307.828125 1205.617188 L 1294.289062 1233.960938 C 1293.132812 1236.375 1290.472656 1237.671875 1287.851562 1237.078125 Z M 1287.894531 1311.886719 L 1282.214844 1281.222656 C 1281.730469 1278.578125 1283.152344 1275.941406 1285.617188 1274.910156 L 1285.632812 1274.910156 C 1288.84375 1273.558594 1292.511719 1275.363281 1294.054688 1281.417969 L 1301.101562 1308.988281 C 1302.011719 1312.519531 1299.929688 1316.199219 1296.398438 1317.097656 L 1295.917969 1317.21875 C 1292.234375 1318.128906 1288.582031 1315.609375 1287.894531 1311.886719 Z M 1303.953125 1273.433594 L 1329.351562 1276.785156 C 1334.769531 1277.5 1337.882812 1283.554688 1335.070312 1288.253906 C 1332.425781 1292.679688 1329.226562 1296.816406 1325.503906 1300.539062 C 1324.773438 1301.269531 1324.015625 1301.984375 1323.257812 1302.675781 C 1318.871094 1306.605469 1311.921875 1304.621094 1310.460938 1298.925781 Z M 1343.910156 1259.578125 L 1343.882812 1260.0625 C 1343.605469 1263.839844 1340.089844 1266.539062 1336.328125 1266.042969 L 1305.402344 1261.964844 C 1302.753906 1261.617188 1300.703125 1259.480469 1300.453125 1256.820312 C 1300.136719 1253.320312 1303.003906 1250.367188 1306.519531 1250.589844 L 1337.636719 1252.589844 C 1341.277344 1252.824219 1344.144531 1255.925781 1343.910156 1259.578125 Z M 1328.675781 1214.136719 C 1332.671875 1218.78125 1336.007812 1224.007812 1338.546875 1229.660156 C 1340.929688 1234.984375 1336.808594 1240.9375 1330.992188 1240.578125 L 1304.753906 1238.882812 L 1315.769531 1215.820312 C 1318.183594 1210.746094 1325.007812 1209.890625 1328.675781 1214.136719 Z M 1241.609375 1214.414062 L 1264.222656 1235.890625 C 1266.164062 1237.726562 1266.566406 1240.664062 1265.199219 1242.964844 L 1265.1875 1242.964844 C 1263.394531 1245.96875 1259.339844 1246.671875 1256.652344 1244.441406 C 1250.132812 1239.035156 1238.964844 1229.785156 1232.582031 1224.492188 C 1229.796875 1222.175781 1229.300781 1218.011719 1231.589844 1215.199219 L 1231.863281 1214.855469 C 1234.316406 1211.902344 1238.828125 1211.765625 1241.609375 1214.414062 Z M 1208.234375 1275.957031 C 1216.726562 1306.714844 1244.628906 1328.9375 1276.503906 1330.609375 C 1277.828125 1330.675781 1279.152344 1330.71875 1280.476562 1330.71875 C 1300.382812 1330.71875 1319.5625 1322.832031 1333.679688 1308.714844 C 1348.925781 1293.480469 1356.882812 1272.34375 1355.515625 1250.753906 C 1353.144531 1213.171875 1323.023438 1183.046875 1285.453125 1180.675781 C 1263.863281 1179.3125 1242.726562 1187.265625 1227.480469 1202.515625 C 1208.59375 1221.402344 1200.886719 1249.308594 1208.234375 1275.957031 " fill-opacity="1" fill-rule="nonzero"/><path fill="#ecf3f3" d="M 1260.609375 1223.855469 C 1241.652344 1235.976562 1237.625 1261.839844 1252.035156 1279.140625 C 1263.90625 1293.398438 1284.902344 1296.652344 1300.550781 1286.667969 C 1319.507812 1274.5625 1323.53125 1248.6875 1309.125 1231.398438 C 1297.253906 1217.140625 1276.257812 1213.875 1260.609375 1223.855469 " fill-opacity="1" fill-rule="nonzero"/><path fill="#3e4860" d="M 1295.65625 1255.261719 C 1295.65625 1246.9375 1288.898438 1240.195312 1280.585938 1240.195312 C 1272.257812 1240.195312 1265.503906 1246.9375 1265.503906 1255.261719 C 1265.503906 1263.589844 1272.257812 1270.34375 1280.585938 1270.34375 C 1288.898438 1270.34375 1295.65625 1263.589844 1295.65625 1255.261719 " fill-opacity="1" fill-rule="nonzero"/><path fill="#3e4860" d="M 1217.058594 1165.730469 L 1266.371094 1262.570312 C 1270.136719 1269.933594 1278.972656 1273.101562 1286.554688 1269.808594 C 1294.289062 1266.429688 1297.957031 1257.539062 1294.84375 1249.691406 L 1251.191406 1139.964844 L 1217.058594 1165.730469 " fill-opacity="1" fill-rule="nonzero"/><path fill="#3e4860" d="M 1137.671875 937.503906 L 1102.007812 983.042969 C 1091.957031 995.878906 1085.765625 1011.304688 1084.152344 1027.53125 L 1071.042969 1160.160156 C 1068.132812 1189.554688 1041.109375 1210.457031 1011.9375 1205.890625 L 949.441406 1196.105469 C 920.367188 1191.554688 899.714844 1165.359375 902.070312 1136.019531 L 911.902344 1013.980469 L 523.015625 970.46875 L 842.691406 1248.851562 L 1100.890625 1255.621094 L 1201.617188 1042.050781 L 1137.671875 937.503906 " fill-opacity="1" fill-rule="nonzero"/><path fill="#3e4860" d="M 725.835938 1187.253906 L 594.117188 1240.992188 C 587.347656 1243.75 583.5 1250.949219 584.960938 1258.101562 C 586.421875 1265.230469 592.722656 1270.316406 600.003906 1270.25 L 820.398438 1268.097656 L 725.835938 1187.253906 " fill-opacity="1" fill-rule="nonzero"/><path fill="#56c061" d="M 1265.53125 1039.238281 L 1132.515625 1263.824219 C 1131.8125 1265.011719 1131.042969 1266.15625 1130.1875 1267.242188 C 1123.363281 1276.234375 1112.484375 1281.457031 1101.015625 1281.003906 L 773.359375 1268.511719 C 766.175781 1268.25 759.28125 1265.714844 753.640625 1261.261719 L 502.890625 1063.433594 C 497.703125 1059.339844 494.988281 1052.886719 495.664062 1046.3125 L 504.625 960.40625 L 716.652344 1036.824219 C 779.878906 1059.601562 831.839844 1105.964844 861.660156 1166.160156 L 882.589844 1208.386719 C 890.875 1225.070312 907.613281 1235.890625 926.238281 1236.527344 L 1059.308594 1241.28125 C 1073.839844 1241.808594 1087.28125 1233.589844 1093.375 1220.382812 L 1137.796875 1124.660156 C 1149.640625 1099.128906 1152.742188 1070.394531 1146.605469 1042.933594 L 1104.902344 855.914062 C 1102.722656 846.097656 1108.347656 836.226562 1117.929688 833.140625 L 1154.394531 821.351562 C 1163.082031 818.554688 1172.539062 822.136719 1177.171875 829.984375 L 1265.628906 980.148438 C 1276.355469 998.386719 1276.328125 1021.027344 1265.53125 1039.238281 " fill-opacity="1" fill-rule="nonzero"/><path fill="#56c061" d="M 1225.480469 1046.40625 L 1313.9375 1084.652344 C 1340.078125 1095.957031 1362.4375 1114.5 1378.390625 1138.089844 C 1385.269531 1148.234375 1378.335938 1162.023438 1366.09375 1162.503906 C 1290.636719 1165.414062 1212.960938 1178.648438 1132.832031 1203.148438 L 1225.480469 1046.40625 " fill-opacity="1" fill-rule="nonzero"/><path fill="#3e4860" d="M 895.757812 1030.523438 L 911.679688 1025.421875 C 923.757812 1021.5625 928.816406 1007.226562 921.839844 996.625 C 894.941406 955.71875 859.785156 938.96875 811.0625 943.847656 L 778.609375 943.308594 C 760.175781 945.15625 741.855469 938.800781 728.535156 925.910156 C 716.058594 913.847656 699.15625 907.464844 681.8125 908.265625 L 553.953125 912.660156 C 537.050781 913.449219 521.96875 923.511719 514.773438 938.828125 L 504.625 960.40625 L 682.296875 1024.445312 L 859.550781 1035.074219 C 871.796875 1035.804688 884.066406 1034.261719 895.757812 1030.523438 " fill-opacity="1" fill-rule="nonzero"/><path fill="#f7c958" d="M 393.875 983.511719 C 393.875 980.546875 391.464844 978.136719 388.484375 978.136719 C 385.523438 978.136719 383.109375 980.546875 383.109375 983.511719 C 383.109375 986.488281 385.523438 988.890625 388.484375 988.890625 C 391.464844 988.890625 393.875 986.488281 393.875 983.511719 " fill-opacity="1" fill-rule="nonzero"/><path fill="#f7c958" d="M 430.964844 1037.335938 C 430.964844 1034.371094 428.550781 1031.957031 425.585938 1031.957031 C 422.609375 1031.957031 420.195312 1034.371094 420.195312 1037.335938 C 420.195312 1040.3125 422.609375 1042.726562 425.585938 1042.726562 C 428.550781 1042.726562 430.964844 1040.3125 430.964844 1037.335938 " fill-opacity="1" fill-rule="nonzero"/><path fill="#56c061" d="M 1085.65625 804.753906 L 1051.824219 804.753906 C 1045.878906 804.753906 1041.070312 799.925781 1041.070312 793.984375 C 1041.070312 788.042969 1045.878906 783.230469 1051.824219 783.230469 L 1085.65625 783.230469 C 1091.597656 783.230469 1096.421875 788.042969 1096.421875 793.984375 C 1096.421875 799.925781 1091.597656 804.753906 1085.65625 804.753906 " fill-opacity="1" fill-rule="nonzero"/><path fill="#ecf3f3" d="M 1109.933594 787.644531 C 1107.492188 787.644531 1105.507812 785.671875 1105.507812 783.230469 L 1105.507812 753.078125 C 1105.507812 738.21875 1093.429688 726.140625 1078.570312 726.140625 L 1074.886719 726.140625 C 1072.449219 726.140625 1070.476562 724.15625 1070.476562 721.714844 C 1070.476562 719.273438 1072.449219 717.304688 1074.886719 717.304688 L 1078.570312 717.304688 C 1098.296875 717.304688 1114.34375 733.351562 1114.34375 753.078125 L 1114.34375 783.230469 C 1114.34375 785.671875 1112.375 787.644531 1109.933594 787.644531 " fill-opacity="1" fill-rule="nonzero"/><path fill="#ecf3f3" d="M 1077.960938 721.714844 C 1077.960938 737.003906 1070.394531 749.398438 1061.058594 749.398438 C 1051.710938 749.398438 1044.144531 737.003906 1044.144531 721.714844 C 1044.144531 706.425781 1051.710938 694.03125 1061.058594 694.03125 C 1070.394531 694.03125 1077.960938 706.425781 1077.960938 721.714844 " fill-opacity="1" fill-rule="nonzero"/><path fill="#ecf3f3" d="M 1206.398438 884.921875 L 1197.398438 889.25 C 1192.476562 891.625 1189.484375 896.765625 1189.871094 902.226562 L 1190.808594 915.417969 C 1191.511719 925.511719 1197.3125 934.554688 1206.191406 939.40625 L 1255.480469 966.347656 C 1257.382812 967.382812 1259.4375 965.257812 1258.335938 963.398438 L 1213.222656 887.003906 C 1211.832031 884.632812 1208.867188 883.738281 1206.398438 884.921875 " fill-opacity="1" fill-rule="nonzero"/><path fill="#40a74d" d="M 1243.363281 1076.695312 L 1170.664062 1192.367188 L 1212.21875 1180.523438 Z M 1243.363281 1076.695312 " fill-opacity="1" fill-rule="nonzero"/><path fill="#40a74d" d="M 1130.1875 1267.242188 C 1123.363281 1276.234375 1112.484375 1281.457031 1101.015625 1281.003906 L 773.359375 1268.511719 C 766.175781 1268.25 759.28125 1265.714844 753.640625 1261.261719 L 502.890625 1063.433594 C 525.058594 1080.914062 697.503906 1115.546875 744.472656 1192.382812 C 791.433594 1269.214844 850.785156 1256.515625 988.195312 1264.390625 C 1033.582031 1266.980469 1083.558594 1267.601562 1130.1875 1267.242188 " fill-opacity="1" fill-rule="nonzero"/><path fill="#303a54" d="M 909.886719 1038.921875 L 860.242188 1049.316406 C 856.972656 1050.003906 853.597656 1050.074219 850.300781 1049.507812 L 737.429688 1029.339844 C 736.449219 1029.171875 736.617188 1027.699219 737.621094 1027.765625 L 857.648438 1035.003906 C 860.75 1035.15625 863.867188 1034.9375 866.902344 1034.328125 L 911.679688 1025.421875 L 909.886719 1038.921875 " fill-opacity="1" fill-rule="nonzero"/><path fill="#56c061" d="M 497.675781 804.808594 L 497.675781 971.601562 L 268.554688 971.601562 L 268.554688 847.105469 L 268.582031 846.277344 C 268.609375 842.101562 269.023438 837.964844 269.753906 833.996094 C 275.917969 800.808594 305.007812 775.664062 340 775.664062 L 468.492188 775.664062 C 484.621094 775.664062 497.675781 788.71875 497.675781 804.808594 " fill-opacity="1" fill-rule="nonzero"/><path fill="#40a74d" d="M 497.675781 833.996094 L 497.675781 846.277344 L 268.582031 846.277344 C 268.609375 842.101562 269.023438 837.964844 269.753906 833.996094 L 497.675781 833.996094 " fill-opacity="1" fill-rule="nonzero"/><path fill="#4a4f54" d="M 804.117188 518.636719 C 804.117188 518.636719 809.257812 540.667969 835.8125 551.242188 C 862.363281 561.816406 858.324219 494.949219 858.324219 494.949219 L 804.117188 518.636719 " fill-opacity="1" fill-rule="nonzero"/><path fill="#f7c4a3" d="M 1015.410156 1193.582031 L 960.691406 1193.582031 L 960.691406 1138.859375 L 1015.410156 1138.859375 L 1015.410156 1193.582031 " fill-opacity="1" fill-rule="nonzero"/><path fill="#343f58" d="M 737.222656 859.570312 C 737.222656 853.804688 742.40625 849.421875 748.085938 850.375 C 784.152344 856.425781 820.203125 862.464844 856.269531 868.515625 C 883.527344 873.078125 910.785156 877.65625 938.039062 882.21875 C 959.5625 885.832031 990.539062 885.707031 1008.519531 898.421875 C 1049.6875 927.539062 1032.546875 995.300781 1030.355469 1037.570312 C 1028.425781 1074.640625 1026.496094 1111.703125 1024.566406 1148.773438 C 1024.304688 1153.722656 1020.222656 1157.609375 1015.261719 1157.609375 L 962.265625 1157.609375 C 957.164062 1157.609375 953.011719 1153.515625 952.945312 1148.414062 C 952.667969 1119.449219 952.40625 1090.46875 952.144531 1061.488281 C 951.9375 1038.410156 951.6875 1015.332031 951.730469 992.238281 C 951.746094 984.972656 947.070312 980.933594 940.46875 979.003906 C 917.375 972.289062 892.984375 969.351562 869.21875 966.015625 C 851.40625 963.507812 833.535156 961.355469 815.628906 959.578125 C 798.738281 957.894531 782.582031 956.488281 766.546875 950.480469 C 730.742188 936.527344 737.222656 890.230469 737.222656 859.570312 " fill-opacity="1" fill-rule="nonzero"/><path fill="#56c061" d="M 815.3125 567.386719 C 830.171875 579.640625 845.046875 591.886719 859.910156 604.140625 C 867.605469 610.484375 877.226562 616.496094 883.914062 623.910156 C 905.089844 647.433594 900.566406 688.585938 902.96875 717.855469 C 905.78125 752.308594 908.605469 786.746094 911.417969 821.1875 C 911.695312 824.550781 914.753906 877.796875 916.0625 877.878906 L 735.554688 865.925781 C 732.257812 865.71875 729.832031 862.753906 730.261719 859.484375 C 736.121094 814.527344 741.289062 769.484375 746.375 724.429688 C 750.914062 684.351562 752.179688 641.339844 773.125 605.617188 C 783.4375 588.011719 798.585938 577.933594 815.3125 567.386719 " fill-opacity="1" fill-rule="nonzero"/><path fill="#f7c4a3" d="M 832.074219 518.320312 L 819.308594 564.3125 L 877.542969 609.285156 L 879.378906 536.628906 L 832.074219 518.320312 " fill-opacity="1" fill-rule="nonzero"/><path fill="#f7c4a3" d="M 952.890625 493.957031 C 952.890625 538.542969 927.34375 564.78125 902.71875 569.496094 C 851.597656 579.296875 809.039062 529.898438 809.039062 485.3125 C 809.039062 440.726562 845.171875 404.578125 889.757812 404.578125 C 934.34375 404.578125 952.890625 449.371094 952.890625 493.957031 " fill-opacity="1" fill-rule="nonzero"/><path fill="#40a74d" d="M 819.488281 551.242188 L 806.996094 573.273438 L 891.152344 637.601562 C 892.710938 638.800781 894.957031 637.738281 895.054688 635.78125 L 896.183594 610.414062 C 896.515625 602.84375 892.710938 595.703125 886.230469 591.761719 L 819.488281 551.242188 " fill-opacity="1" fill-rule="nonzero"/><path fill="#f7c4a3" d="M 811.0625 672.71875 L 864.5 769.542969 C 867.589844 779.605469 876.164062 787.035156 886.574219 788.664062 L 1019.949219 814.664062 C 1024.71875 815.410156 1029.570312 815.480469 1034.367188 815.011719 C 1049.3125 813.5625 1063.28125 816.457031 1076.019531 824.730469 C 1077.5625 825.734375 1079.574219 825.667969 1080.996094 824.480469 L 1086.730469 819.671875 C 1088.398438 818.265625 1088.703125 815.824219 1087.421875 814.074219 C 1082.511719 807.359375 1069.539062 792.125 1050.472656 788.664062 C 1025.847656 784.195312 906.371094 747.304688 906.371094 747.304688 L 853.789062 646.714844 L 811.0625 672.71875 " fill-opacity="1" fill-rule="nonzero"/><path fill="#40a74d" d="M 799.898438 670.195312 L 828.171875 732.097656 C 829.511719 735.03125 833.125 736.136719 835.894531 734.453125 L 892.683594 699.835938 C 894.707031 698.59375 895.328125 695.933594 894.074219 693.921875 L 856.808594 634.238281 C 850.496094 624.339844 839.464844 618.453125 827.71875 618.726562 C 814.621094 619.03125 802.890625 626.945312 797.691406 638.980469 L 797.59375 639.203125 C 793.25 649.28125 794.105469 660.859375 799.898438 670.195312 " fill-opacity="1" fill-rule="nonzero"/><path fill="#fff5e8" d="M 1079.1875 1207.078125 C 1079.65625 1226.945312 996.371094 1222.175781 966.550781 1219.816406 C 962.292969 1219.457031 958.75 1216.8125 957.136719 1213.117188 C 956.488281 1211.683594 956.128906 1210.125 956.15625 1208.441406 L 956.335938 1188.453125 C 956.335938 1186.632812 957.191406 1184.921875 958.625 1183.765625 C 959.644531 1182.980469 960.886719 1182.566406 962.140625 1182.566406 C 962.816406 1182.566406 963.464844 1182.675781 964.109375 1182.910156 C 971.707031 1185.804688 993.296875 1191.925781 1015.714844 1179.40625 C 1015.714844 1179.40625 1071.207031 1182.441406 1078.402344 1202.902344 C 1078.898438 1204.222656 1079.160156 1205.601562 1079.1875 1207.078125 " fill-opacity="1" fill-rule="nonzero"/><path fill="#343f58" d="M 1078.390625 1202.902344 C 1069.8125 1218.21875 990.210938 1215.390625 956.554688 1213.117188 C 955.90625 1211.683594 955.550781 1210.125 955.578125 1208.441406 L 955.757812 1188.453125 C 955.757812 1186.632812 956.609375 1184.921875 958.058594 1183.765625 C 959.09375 1182.980469 960.320312 1182.566406 961.589844 1182.566406 C 962.265625 1182.566406 962.925781 1182.675781 963.574219 1182.910156 C 971.199219 1185.804688 992.898438 1191.925781 1015.410156 1179.40625 C 1015.410156 1179.40625 1071.179688 1182.441406 1078.390625 1202.902344 " fill-opacity="1" fill-rule="nonzero"/><path fill="#fff5e8" d="M 1044.101562 1183.460938 C 1044.101562 1183.460938 1034.011719 1195.871094 1037.664062 1214.921875 C 1037.664062 1214.921875 1066.328125 1218.21875 1078.996094 1205.160156 C 1078.996094 1205.160156 1079.382812 1187.335938 1044.101562 1183.460938 " fill-opacity="1" fill-rule="nonzero"/><path fill="#f7c4a3" d="M 837.5625 515.132812 C 837.5625 526.289062 828.53125 535.316406 817.378906 535.316406 C 806.238281 535.316406 797.195312 526.289062 797.195312 515.132812 C 797.195312 503.996094 806.238281 494.949219 817.378906 494.949219 C 828.53125 494.949219 837.5625 503.996094 837.5625 515.132812 " fill-opacity="1" fill-rule="nonzero"/><path fill="#4a4f54" d="M 806.996094 443.429688 C 806.996094 443.429688 793.347656 479.027344 801.632812 502.519531 C 801.632812 502.519531 814.496094 496.867188 817.378906 502.519531 C 820.261719 508.1875 822.371094 520.773438 832.074219 518.320312 C 841.796875 515.878906 837.949219 474.242188 844.097656 468.535156 C 850.246094 462.828125 806.996094 443.429688 806.996094 443.429688 " fill-opacity="1" fill-rule="nonzero"/><path fill="#4a4f54" d="M 887.277344 465.941406 C 887.277344 465.941406 921.8125 504.917969 973.953125 483.148438 C 976.0625 482.265625 975.925781 479.191406 973.71875 478.613281 C 968.414062 477.21875 961.628906 473.882812 957.328125 465.941406 C 949.429688 451.289062 907.144531 443.59375 895.617188 448.214844 C 884.078125 452.832031 887.277344 465.941406 887.277344 465.941406 " fill-opacity="1" fill-rule="nonzero"/><path fill="#40a74d" d="M 840.058594 476.476562 L 802.804688 466.6875 C 797.03125 465.792969 796.824219 462.882812 797.195312 457.050781 C 798.492188 436.964844 798.933594 381.898438 856.589844 374.398438 C 905.460938 368.042969 927.453125 373.253906 942.410156 392.859375 C 957.355469 412.464844 959.808594 456.167969 959.808594 456.167969 C 912.921875 436.4375 873.960938 446.835938 840.058594 476.476562 " fill-opacity="1" fill-rule="nonzero"/><path fill="#56c061" d="M 966.71875 475.703125 C 959.824219 476.476562 952.640625 464.246094 948.917969 461.628906 C 939.40625 454.898438 928.789062 453.894531 918.089844 455.628906 L 917.527344 455.726562 C 904.828125 457.90625 892.0625 463.890625 880.976562 468.671875 C 875.65625 470.988281 870.320312 473.292969 864.984375 475.414062 C 858.671875 477.894531 851.722656 480.363281 845.199219 478.476562 C 844.46875 478.269531 843.792969 478.035156 843.171875 477.773438 C 834.265625 473.96875 833.949219 463.929688 839.480469 457.4375 C 864.570312 428.167969 922.777344 423.273438 953.605469 447.234375 C 955.082031 448.390625 959.535156 452.570312 963.65625 457.382812 L 963.710938 457.464844 C 964.71875 458.675781 965.75 459.945312 966.660156 461.214844 L 966.71875 461.269531 L 966.8125 461.378906 C 969.171875 464.59375 971.03125 467.804688 971.472656 470.367188 L 971.472656 470.410156 C 971.96875 473.234375 970.757812 475.261719 966.71875 475.703125 " fill-opacity="1" fill-rule="nonzero"/><path fill="#7fcf88" d="M 966.71875 475.703125 C 959.824219 476.476562 952.640625 464.246094 948.917969 461.628906 C 939.40625 454.898438 928.789062 453.894531 918.089844 455.628906 L 917.527344 455.726562 C 904.828125 457.90625 892.0625 463.890625 880.976562 468.671875 C 875.65625 470.988281 870.320312 473.292969 864.984375 475.414062 C 858.671875 477.894531 851.722656 480.363281 845.199219 478.476562 C 844.46875 478.269531 843.792969 478.035156 843.171875 477.773438 C 849.832031 479.125 865.246094 464.59375 892.15625 455.808594 C 917.292969 447.648438 948.089844 440.699219 963.65625 457.382812 L 963.710938 457.464844 C 964.773438 458.582031 965.78125 459.847656 966.660156 461.214844 L 966.71875 461.269531 L 966.8125 461.378906 C 968.632812 464.179688 970.203125 467.226562 971.472656 470.367188 L 971.472656 470.410156 C 971.96875 473.234375 970.757812 475.261719 966.71875 475.703125 " fill-opacity="1" fill-rule="nonzero"/><path fill="#56c061" d="M 966.71875 475.703125 C 959.824219 476.476562 952.640625 464.246094 948.917969 461.628906 C 939.40625 454.898438 928.789062 453.894531 918.089844 455.628906 C 940.136719 451.6875 959.464844 452.695312 966.71875 475.703125 " fill-opacity="1" fill-rule="nonzero"/><path fill="#f4b185" d="M 878.535156 569.839844 C 878.535156 569.839844 857.582031 568.460938 847.433594 556.769531 C 847.433594 556.769531 850.964844 566.476562 878.289062 580 L 878.535156 569.839844 " fill-opacity="1" fill-rule="nonzero"/><path fill="#0db6a6" d="M 665.078125 385.097656 L 665.078125 466.027344 L 120.59375 466.027344 L 120.59375 385.097656 L 665.078125 385.097656 " fill-opacity="1" fill-rule="nonzero"/><path fill="#d6f2ef" d="M 392.828125 571.703125 C 356.679688 571.703125 327.257812 601.109375 327.257812 637.269531 C 327.257812 673.433594 356.679688 702.839844 392.828125 702.839844 C 428.992188 702.839844 458.414062 673.433594 458.414062 637.269531 C 458.414062 601.109375 428.992188 571.703125 392.828125 571.703125 Z M 392.828125 715.757812 C 349.550781 715.757812 314.339844 680.546875 314.339844 637.269531 C 314.339844 593.996094 349.550781 558.78125 392.828125 558.78125 C 436.121094 558.78125 471.332031 593.996094 471.332031 637.269531 C 471.332031 680.546875 436.121094 715.757812 392.828125 715.757812 " fill-opacity="1" fill-rule="nonzero"/><path fill="#d6f2ef" d="M 433.804688 597.867188 C 433.28125 597.8125 432.753906 597.785156 432.246094 597.785156 C 425.613281 597.785156 420.167969 602.085938 415.355469 605.890625 C 414.613281 606.484375 413.882812 607.0625 413.179688 607.601562 C 408.132812 611.433594 403.308594 615.625 398.855469 620.066406 C 394.375 624.519531 390.15625 629.316406 386.292969 634.335938 C 386.140625 634.527344 385.867188 634.859375 385.507812 635.328125 C 381.953125 639.78125 379.578125 642.921875 378.0625 645.226562 C 374.90625 640.496094 371.128906 635.808594 365.585938 633.203125 C 363.089844 632.019531 359.890625 631.316406 357.039062 631.316406 C 352.15625 631.316406 348.628906 633.285156 347.113281 636.871094 C 346.007812 639.449219 347.25 643.449219 349.054688 645.171875 C 356.640625 652.394531 362.746094 662.238281 366.703125 673.640625 C 367.890625 677.046875 370.082031 683.359375 377.042969 683.359375 C 378.339844 683.359375 379.730469 683.140625 381.277344 682.699219 C 388.128906 680.753906 390.058594 677.058594 392.234375 671.628906 C 401.84375 646.5625 416.734375 624.476562 436.503906 605.960938 C 437.871094 604.691406 438.339844 602.804688 437.746094 601.039062 C 437.152344 599.273438 435.652344 598.0625 433.804688 597.867188 " fill-opacity="1" fill-rule="nonzero"/><path fill="#d6f2ef" d="M 169.800781 451.617188 L 165.96875 451.617188 C 164.492188 451.617188 163.28125 450.417969 163.28125 448.929688 L 163.28125 440.988281 C 163.28125 439.515625 164.492188 438.300781 165.96875 438.300781 L 169.800781 438.300781 C 171.289062 438.300781 172.488281 439.515625 172.488281 440.988281 L 172.488281 448.929688 C 172.488281 450.417969 171.289062 451.617188 169.800781 451.617188 " fill-opacity="1" fill-rule="nonzero"/><path fill="#d6f2ef" d="M 184.648438 451.617188 L 180.816406 451.617188 C 179.328125 451.617188 178.128906 450.417969 178.128906 448.929688 L 178.128906 434.5625 C 178.128906 433.074219 179.328125 431.875 180.816406 431.875 L 184.648438 431.875 C 186.136719 431.875 187.335938 433.074219 187.335938 434.5625 L 187.335938 448.929688 C 187.335938 450.417969 186.136719 451.617188 184.648438 451.617188 " fill-opacity="1" fill-rule="nonzero"/><path fill="#d6f2ef" d="M 199.496094 451.617188 L 195.664062 451.617188 C 194.175781 451.617188 192.976562 450.417969 192.976562 448.929688 L 192.976562 425.078125 C 192.976562 423.589844 194.175781 422.390625 195.664062 422.390625 L 199.496094 422.390625 C 200.984375 422.390625 202.1875 423.589844 202.1875 425.078125 L 202.1875 448.929688 C 202.1875 450.417969 200.984375 451.617188 199.496094 451.617188 " fill-opacity="1" fill-rule="nonzero"/><path fill="#d6f2ef" d="M 511.960938 448.378906 L 541.105469 448.378906 C 544.402344 448.378906 547.074219 445.703125 547.074219 442.410156 L 547.074219 430.46875 C 547.074219 427.175781 544.402344 424.5 541.105469 424.5 L 511.960938 424.5 C 508.664062 424.5 505.992188 427.175781 505.992188 430.46875 L 505.992188 442.410156 C 505.992188 445.703125 508.664062 448.378906 511.960938 448.378906 " fill-opacity="1" fill-rule="nonzero"/><path fill="#d6f2ef" d="M 545.433594 441.347656 L 547.945312 441.347656 C 548.882812 441.347656 549.640625 440.589844 549.640625 439.652344 L 549.640625 433.226562 C 549.640625 432.289062 548.882812 431.515625 547.945312 431.515625 L 545.433594 431.515625 L 545.433594 441.347656 " fill-opacity="1" fill-rule="nonzero"/><path fill="#0db6a6" d="M 541.105469 427.574219 C 542.703125 427.574219 544 428.871094 544 430.46875 L 544 442.410156 C 544 444.007812 542.703125 445.304688 541.105469 445.304688 L 538.71875 445.304688 L 532.28125 427.574219 L 541.105469 427.574219 " fill-opacity="1" fill-rule="nonzero"/><path fill="#d6f2ef" d="M 582.546875 441.609375 C 583.015625 441.609375 583.417969 441.761719 583.734375 442.078125 C 584.039062 442.394531 584.203125 442.78125 584.203125 443.25 C 584.203125 443.703125 584.039062 444.089844 583.734375 444.394531 C 583.417969 444.699219 583.015625 444.847656 582.546875 444.847656 L 572.539062 444.847656 C 572.03125 444.847656 571.628906 444.683594 571.339844 444.378906 C 571.035156 444.0625 570.898438 443.664062 570.898438 443.167969 C 570.898438 442.671875 571.078125 442.242188 571.421875 441.871094 L 577.847656 435.019531 C 578.5625 434.234375 579.144531 433.421875 579.570312 432.605469 C 579.984375 431.78125 580.191406 431.0625 580.191406 430.457031 C 580.191406 429.464844 579.914062 428.675781 579.335938 428.085938 C 578.769531 427.476562 578.011719 427.1875 577.074219 427.1875 C 576.703125 427.1875 576.316406 427.269531 575.929688 427.449219 C 575.53125 427.628906 575.160156 427.863281 574.800781 428.179688 C 574.429688 428.5 574.097656 428.855469 573.78125 429.269531 L 573.078125 429.863281 L 572.429688 429.988281 C 571.988281 429.988281 571.601562 429.820312 571.230469 429.492188 C 570.871094 429.171875 570.691406 428.789062 570.691406 428.359375 C 570.691406 428.03125 570.800781 427.699219 571.023438 427.394531 C 571.257812 427.078125 571.53125 426.746094 571.863281 426.417969 C 572.359375 425.933594 572.910156 425.492188 573.519531 425.121094 C 574.125 424.75 574.746094 424.457031 575.394531 424.25 C 576.042969 424.046875 576.675781 423.949219 577.28125 423.949219 C 578.59375 423.949219 579.734375 424.210938 580.714844 424.71875 C 581.679688 425.246094 582.4375 425.988281 582.960938 426.925781 C 583.5 427.890625 583.761719 429.007812 583.761719 430.304688 C 583.761719 431.378906 583.445312 432.578125 582.796875 433.902344 C 582.164062 435.238281 581.308594 436.480469 580.234375 437.640625 L 576.25 441.871094 L 575.929688 441.609375 L 582.546875 441.609375 " fill-opacity="1" fill-rule="nonzero"/><path fill="#d6f2ef" d="M 597.273438 444.847656 C 596.777344 444.847656 596.363281 444.671875 596.03125 444.324219 C 595.703125 443.980469 595.535156 443.554688 595.535156 443.058594 L 595.535156 429.214844 L 596.15625 429.367188 L 590.476562 436.398438 L 590.324219 436.011719 L 600.746094 436.011719 C 601.214844 436.011719 601.601562 436.175781 601.917969 436.480469 C 602.234375 436.796875 602.386719 437.199219 602.386719 437.667969 C 602.386719 438.109375 602.234375 438.492188 601.917969 438.796875 C 601.601562 439.101562 601.214844 439.25 600.746094 439.25 L 587.882812 439.25 C 587.46875 439.25 587.070312 439.085938 586.683594 438.753906 C 586.3125 438.425781 586.121094 438.011719 586.121094 437.515625 C 586.121094 437.085938 586.257812 436.6875 586.5625 436.34375 L 595.851562 424.941406 L 596.472656 424.429688 L 597.328125 424.238281 C 597.839844 424.238281 598.25 424.417969 598.582031 424.75 C 598.898438 425.09375 599.066406 425.519531 599.066406 426.03125 L 599.066406 443.058594 C 599.066406 443.554688 598.898438 443.980469 598.554688 444.324219 C 598.210938 444.671875 597.78125 444.847656 597.273438 444.847656 " fill-opacity="1" fill-rule="nonzero"/><path fill="#d6f2ef" d="M 605.601562 448.792969 C 605.269531 448.792969 604.925781 448.65625 604.566406 448.378906 C 604.222656 448.101562 604.042969 447.746094 604.042969 447.316406 L 604.222656 446.613281 L 616.175781 422.15625 L 616.726562 421.496094 L 617.46875 421.273438 C 617.800781 421.273438 618.132812 421.398438 618.476562 421.660156 C 618.820312 421.921875 619 422.28125 619 422.734375 L 618.820312 423.4375 L 606.894531 447.910156 L 606.359375 448.558594 L 605.601562 448.792969 " fill-opacity="1" fill-rule="nonzero"/><path fill="#d6f2ef" d="M 625.742188 444.988281 C 625.246094 444.988281 624.820312 444.835938 624.460938 444.503906 C 624.089844 444.1875 623.910156 443.773438 623.910156 443.292969 L 624.089844 442.492188 L 631.296875 426.859375 L 631.628906 427.65625 L 623.125 427.65625 C 622.640625 427.65625 622.253906 427.492188 621.9375 427.1875 C 621.621094 426.871094 621.46875 426.472656 621.46875 426.003906 C 621.46875 425.5625 621.621094 425.175781 621.9375 424.871094 C 622.253906 424.570312 622.640625 424.417969 623.125 424.417969 L 633.367188 424.417969 C 633.863281 424.417969 634.316406 424.582031 634.703125 424.898438 C 635.078125 425.230469 635.269531 425.644531 635.269531 426.15625 L 635.089844 426.953125 L 627.355469 443.871094 C 627.21875 444.230469 626.996094 444.503906 626.695312 444.699219 C 626.390625 444.890625 626.074219 444.988281 625.742188 444.988281 " fill-opacity="1" fill-rule="nonzero"/><path fill="#d6f2ef" d="M 224.300781 451.617188 C 222.300781 451.617188 220.6875 450.003906 220.6875 448.007812 C 220.6875 444.890625 224.453125 443.140625 226.699219 445.289062 L 227.03125 445.609375 C 229.167969 447.867188 227.414062 451.617188 224.300781 451.617188 " fill-opacity="1" fill-rule="nonzero"/><path fill="#d6f2ef" d="M 235.6875 450.488281 C 234.324219 450.488281 233.191406 449.507812 232.890625 448.1875 C 231.867188 443.648438 228.546875 440.257812 224.160156 439.390625 C 222.867188 439.140625 221.886719 438.078125 221.886719 436.769531 L 221.886719 436.480469 C 221.886719 434.757812 223.484375 433.515625 225.195312 433.847656 C 231.855469 435.15625 237.109375 440.355469 238.484375 446.984375 C 238.871094 448.777344 237.519531 450.488281 235.6875 450.488281 " fill-opacity="1" fill-rule="nonzero"/><path fill="#d6f2ef" d="M 247.144531 450.488281 C 245.722656 450.488281 244.511719 449.414062 244.359375 447.992188 C 243.214844 437.515625 234.875 429.324219 224.367188 428.058594 C 222.949219 427.878906 221.886719 426.679688 221.886719 425.246094 C 221.886719 423.5625 223.347656 422.226562 225.03125 422.40625 C 238.140625 423.851562 248.535156 434.261719 249.96875 447.371094 C 250.148438 449.039062 248.828125 450.488281 247.144531 450.488281 " fill-opacity="1" fill-rule="nonzero"/><path fill="#524b5b" d="M 673.402344 532.382812 L 671.886719 532.382812 C 669.488281 532.382812 667.214844 532.835938 665.089844 533.636719 L 665.089844 671.585938 C 667.214844 672.371094 669.488281 672.839844 671.886719 672.839844 L 673.402344 672.839844 C 684.472656 672.839844 693.4375 663.480469 693.4375 651.925781 L 693.4375 553.296875 C 693.4375 541.742188 684.472656 532.382812 673.402344 532.382812 " fill-opacity="1" fill-rule="nonzero"/><path fill="#524b5b" d="M 677.125 699.351562 L 668.164062 699.351562 C 667.101562 699.351562 666.082031 699.476562 665.089844 699.671875 L 665.089844 788.457031 C 666.082031 788.664062 667.101562 788.789062 668.164062 788.789062 L 677.125 788.789062 C 686.140625 788.789062 693.4375 781.164062 693.4375 771.761719 L 693.4375 716.378906 C 693.4375 706.976562 686.140625 699.351562 677.125 699.351562 " fill-opacity="1" fill-rule="nonzero"/><path fill="#524b5b" d="M 118.691406 626.78125 L 110.433594 626.78125 C 101.226562 626.78125 93.765625 619.320312 93.765625 610.109375 L 93.765625 554.011719 C 93.765625 544.816406 101.226562 537.34375 110.433594 537.34375 L 118.691406 537.34375 C 127.902344 537.34375 135.359375 544.816406 135.359375 554.011719 L 135.359375 610.109375 C 135.359375 619.320312 127.902344 626.78125 118.691406 626.78125 " fill-opacity="1" fill-rule="nonzero"/><path fill="#524b5b" d="M 654.019531 1018.15625 L 654.019531 1279.71875 C 654.019531 1296.59375 641.171875 1310.21875 625.355469 1310.21875 L 163.859375 1310.21875 C 148.046875 1310.21875 135.195312 1296.59375 135.195312 1279.71875 L 135.195312 436.148438 C 135.195312 419.273438 148.046875 405.625 163.859375 405.625 L 625.355469 405.625 C 641.171875 405.625 654.019531 419.273438 654.019531 436.148438 Z M 636.9375 341.324219 L 152.167969 341.324219 C 127.503906 341.324219 107.527344 362.183594 107.527344 387.9375 L 107.527344 1324.363281 C 107.527344 1350.089844 127.503906 1370.988281 152.167969 1370.988281 L 636.9375 1370.988281 C 661.644531 1370.988281 681.621094 1350.089844 681.621094 1324.363281 L 681.621094 387.9375 C 681.621094 362.183594 661.644531 341.324219 636.9375 341.324219 " fill-opacity="1" fill-rule="nonzero"/><path fill="#d0dbec" d="M 1480.425781 1410.832031 L 19.25 1410.832031 C 8.5625 1410.832031 -0.078125 1402.175781 -0.078125 1391.488281 L -0.078125 1389.023438 C -0.078125 1378.335938 8.5625 1369.691406 19.25 1369.691406 L 1480.425781 1369.691406 C 1491.097656 1369.691406 1499.753906 1378.335938 1499.753906 1389.023438 L 1499.753906 1391.488281 C 1499.753906 1402.175781 1491.097656 1410.832031 1480.425781 1410.832031 " fill-opacity="1" fill-rule="nonzero"/></svg>